<svg version="1.1" id="Layer_1" xmlns="http://www.w3.org/2000/svg" xmlns:xlink="http://www.w3.org/1999/xlink" x="0px" y="0px"
	 width="100%" viewBox="0 0 512 512" enable-background="new 0 0 512 512" xml:space="preserve">
<path fill="#000000" opacity="1.000000" stroke="none" 
	d="
M297.000000,513.000000 
	C198.024033,513.000000 99.548058,513.000000 1.036045,513.000000 
	C1.036045,342.399017 1.036045,171.798004 1.036045,1.098500 
	C171.559311,1.098500 342.118713,1.098500 512.839050,1.098500 
	C512.839050,171.666550 512.839050,342.333252 512.839050,513.000000 
	C441.131317,513.000000 369.315643,513.000000 297.000000,513.000000 
M89.222084,105.626305 
	C107.230148,123.666527 125.253883,141.691147 143.240265,159.752960 
	C153.580154,170.136200 163.859528,180.579712 173.849426,191.651245 
	C167.901993,202.324570 163.420410,213.455750 161.904816,225.740189 
	C159.563110,244.720413 160.644226,263.165680 168.479080,281.052460 
	C165.173706,284.343628 162.036835,287.836304 158.472260,290.817566 
	C157.211029,291.872406 154.651993,292.445099 153.118973,291.935028 
	C141.543274,288.083313 129.456009,287.767059 117.821449,289.308167 
	C98.395203,291.881348 81.857697,300.766602 68.519882,315.784424 
	C51.935043,334.458282 47.331558,356.350586 49.069897,380.307159 
	C49.336849,383.986145 50.958805,387.616760 54.677410,388.707703 
	C58.315666,389.775116 61.751068,389.097870 64.916313,385.792664 
	C76.436966,373.762451 88.335464,362.092224 100.163391,350.358765 
	C107.769196,342.813690 115.196281,341.578827 123.171295,348.262390 
	C131.678574,355.392029 139.695297,363.341125 146.753510,371.899597 
	C153.745789,380.378113 152.522934,386.977905 144.728119,394.771210 
	C132.356827,407.139954 119.984329,419.507446 107.615768,431.878876 
	C104.953453,434.541840 103.520660,437.283020 104.650726,441.450409 
	C105.888550,446.015198 109.109375,447.442780 112.873825,447.898987 
	C118.588104,448.591461 124.374084,448.746643 130.135605,448.984833 
	C149.242386,449.774872 166.015350,443.129364 180.222977,431.047516 
	C206.372803,408.810333 214.904938,377.930969 205.831223,345.180115 
	C205.075928,342.453888 205.320557,341.006531 207.226135,339.195892 
	C210.722992,335.873260 214.008514,332.328156 217.914429,329.352997 
	C228.044205,332.392914 238.173996,335.432831 248.996155,338.680542 
	C248.996155,342.585052 248.996155,347.710663 248.205948,352.966003 
	C242.329254,353.819641 241.016953,355.169312 241.013214,360.852661 
	C240.988510,398.345551 240.985397,435.838440 241.017075,473.331329 
	C241.021851,478.986267 243.098938,480.937408 248.900146,480.989685 
	C254.065414,481.036224 259.231506,481.014160 264.397125,480.996216 
	C271.125519,480.972839 272.991028,479.162872 272.993408,472.530823 
	C273.006622,435.537842 273.005524,398.544861 272.994385,361.551880 
	C272.992401,354.990936 271.634033,353.545593 265.003510,351.921936 
	C265.003510,347.027740 265.003510,342.133575 265.003510,337.600616 
	C272.065033,336.271027 278.534607,335.052856 285.592102,334.175690 
	C318.825897,367.382019 352.098602,400.549561 385.266998,433.821075 
	C393.930298,442.511292 404.587158,446.760803 416.435944,446.838348 
	C435.879303,446.965637 452.940582,435.832458 459.759460,417.172455 
	C466.365417,399.095154 462.915070,382.613434 449.276398,368.846619 
	C422.895660,342.217896 396.291168,315.810913 369.804260,289.287231 
	C363.100067,282.573761 356.489349,275.766876 349.982147,268.172516 
	C352.942078,257.123444 353.323486,245.854126 353.030182,234.498962 
	C352.728882,222.835602 349.842957,211.851974 345.482330,200.973709 
	C348.907654,197.566269 352.234344,194.049149 355.822601,190.822922 
	C356.808594,189.936386 358.814148,189.226120 359.948090,189.614349 
	C368.491058,192.539307 377.243988,193.078247 386.192169,193.067261 
	C410.046997,193.037964 429.461334,183.823364 445.402435,166.206680 
	C462.158508,147.689423 466.766052,125.697311 464.863281,101.738541 
	C464.538300,97.646889 463.701630,92.660545 458.957031,91.226196 
	C454.263000,89.807114 450.356934,91.775467 446.733887,95.563721 
	C434.989227,107.843842 422.825806,119.724632 410.772919,131.708206 
	C405.376617,137.073502 396.820312,138.264328 391.080048,133.404999 
	C383.119995,126.666557 376.043915,118.895958 368.298248,111.889069 
	C359.647034,104.062996 359.885956,93.105667 368.126465,85.232841 
	C380.412506,73.494949 392.159088,61.194210 404.298950,49.300098 
	C407.324677,46.335655 408.553772,42.841038 406.760101,39.475140 
	C405.496216,37.103378 402.340881,34.390694 399.883240,34.241104 
	C390.063477,33.643387 380.056488,32.965199 370.357178,34.195766 
	C349.509094,36.840797 332.803467,47.923271 320.512695,64.399704 
	C304.210144,86.254234 301.038635,111.050194 308.013428,137.290421 
	C308.412384,138.791245 308.004425,141.112686 307.034760,142.260208 
	C303.821075,146.063309 300.178192,149.503754 296.120331,152.655457 
	C287.162323,150.106277 278.340546,146.188232 269.219208,145.280670 
	C247.343964,143.104111 226.175110,146.349319 206.409164,157.823914 
	C182.481277,133.924271 158.562653,110.015358 134.617249,86.133286 
	C130.142761,81.670631 125.560982,77.315559 121.010185,71.988853 
	C121.005890,67.989288 121.240723,63.968956 120.895889,59.998974 
	C120.724823,58.029572 119.958580,55.714508 118.651001,54.311047 
	C113.428864,48.705975 107.934784,43.349930 102.447159,37.998302 
	C99.518044,35.141785 94.573845,35.019070 91.722038,37.845451 
	C79.057281,50.397293 66.450539,63.008186 53.894554,75.668869 
	C51.065105,78.521912 51.176651,83.444557 53.943558,86.399986 
	C56.106384,88.710167 58.750225,90.645271 60.576828,93.181664 
	C67.646713,102.998810 76.942650,107.122169 89.222084,105.626305 
z"/>
<path fill="#00A0C8" opacity="1.000000" stroke="none" 
	d="
M296.699951,153.083313 
	C300.178192,149.503754 303.821075,146.063309 307.034760,142.260208 
	C308.004425,141.112686 308.412384,138.791245 308.013428,137.290421 
	C301.038635,111.050194 304.210144,86.254234 320.512695,64.399704 
	C332.803467,47.923271 349.509094,36.840797 370.357178,34.195766 
	C380.056488,32.965199 390.063477,33.643387 399.883240,34.241104 
	C402.340881,34.390694 405.496216,37.103378 406.760101,39.475140 
	C408.553772,42.841038 407.324677,46.335655 404.298950,49.300098 
	C392.159088,61.194210 380.412506,73.494949 368.126465,85.232841 
	C359.885956,93.105667 359.647034,104.062996 368.298248,111.889069 
	C376.043915,118.895958 383.119995,126.666557 391.080048,133.404999 
	C396.820312,138.264328 405.376617,137.073502 410.772919,131.708206 
	C422.825806,119.724632 434.989227,107.843842 446.733887,95.563721 
	C450.356934,91.775467 454.263000,89.807114 458.957031,91.226196 
	C463.701630,92.660545 464.538300,97.646889 464.863281,101.738541 
	C466.766052,125.697311 462.158508,147.689423 445.402435,166.206680 
	C429.461334,183.823364 410.046997,193.037964 386.192169,193.067261 
	C377.243988,193.078247 368.491058,192.539307 359.948090,189.614349 
	C358.814148,189.226120 356.808594,189.936386 355.822601,190.822922 
	C352.234344,194.049149 348.907654,197.566269 344.892273,200.951813 
	C336.567139,184.621033 325.365082,171.245667 310.337646,161.202652 
	C305.944977,158.266953 301.254120,155.777374 296.699951,153.083313 
z"/>
<path fill="#00A0C8" opacity="1.000000" stroke="none" 
	d="
M217.382141,328.875793 
	C214.008514,332.328156 210.722992,335.873260 207.226135,339.195892 
	C205.320557,341.006531 205.075928,342.453888 205.831223,345.180115 
	C214.904938,377.930969 206.372803,408.810333 180.222977,431.047516 
	C166.015350,443.129364 149.242386,449.774872 130.135605,448.984833 
	C124.374084,448.746643 118.588104,448.591461 112.873825,447.898987 
	C109.109375,447.442780 105.888550,446.015198 104.650726,441.450409 
	C103.520660,437.283020 104.953453,434.541840 107.615768,431.878876 
	C119.984329,419.507446 132.356827,407.139954 144.728119,394.771210 
	C152.522934,386.977905 153.745789,380.378113 146.753510,371.899597 
	C139.695297,363.341125 131.678574,355.392029 123.171295,348.262390 
	C115.196281,341.578827 107.769196,342.813690 100.163391,350.358765 
	C88.335464,362.092224 76.436966,373.762451 64.916313,385.792664 
	C61.751068,389.097870 58.315666,389.775116 54.677410,388.707703 
	C50.958805,387.616760 49.336849,383.986145 49.069897,380.307159 
	C47.331558,356.350586 51.935043,334.458282 68.519882,315.784424 
	C81.857697,300.766602 98.395203,291.881348 117.821449,289.308167 
	C129.456009,287.767059 141.543274,288.083313 153.118973,291.935028 
	C154.651993,292.445099 157.211029,291.872406 158.472260,290.817566 
	C162.036835,287.836304 165.173706,284.343628 169.080688,281.073669 
	C173.500320,287.322296 176.937851,293.825775 181.214310,299.720581 
	C190.596085,312.652740 203.401917,321.540802 217.382141,328.875793 
z"/>
<path fill="#0A5078" opacity="1.000000" stroke="none" 
	d="
M349.835693,269.002899 
	C356.489349,275.766876 363.100067,282.573761 369.804260,289.287231 
	C396.291168,315.810913 422.895660,342.217896 449.276398,368.846619 
	C462.915070,382.613434 466.365417,399.095154 459.759460,417.172455 
	C452.940582,435.832458 435.879303,446.965637 416.435944,446.838348 
	C404.587158,446.760803 393.930298,442.511292 385.266998,433.821075 
	C352.098602,400.549561 318.825897,367.382019 285.415955,333.674957 
	C289.020508,331.713806 292.801178,330.253357 296.896301,328.971069 
	C298.801117,330.611938 300.446442,332.019623 301.973633,333.545532 
	C329.543701,361.091797 357.091644,388.660217 384.667206,416.200989 
	C388.658234,420.186951 393.587708,421.186676 397.810394,419.054382 
	C402.323730,416.775299 405.189850,411.978455 403.754456,407.044769 
	C402.784271,403.710022 400.636780,400.369080 398.165131,397.873596 
	C372.380554,371.840576 346.432434,345.969421 320.487549,320.095612 
	C319.229797,318.841309 317.580780,317.979309 316.270874,316.648712 
	C321.933716,310.940582 327.439636,305.518341 333.128204,300.369537 
	C336.921448,304.328033 340.501160,308.043976 344.147675,311.693207 
	C368.273865,335.837585 392.403473,359.978577 416.559509,384.093079 
	C421.371490,388.896759 427.218048,389.466003 431.735535,385.738831 
	C436.915924,381.464813 437.606171,375.674194 433.476593,369.792938 
	C432.148315,367.901245 430.568604,366.155853 428.931274,364.515930 
	C402.462921,338.004425 375.971802,311.515656 349.463409,285.044189 
	C347.941101,283.523987 346.226685,282.196167 344.690552,280.418701 
	C346.464874,276.373322 348.150299,272.688110 349.835693,269.002899 
z"/>
<path fill="#F8B402" opacity="1.000000" stroke="none" 
	d="
M296.581848,328.792908 
	C292.801178,330.253357 289.020508,331.713806 285.122009,333.504456 
	C278.534607,335.052856 272.065033,336.271027 265.003510,337.600616 
	C265.003510,342.133575 265.003510,347.027740 264.540405,352.443176 
	C259.050232,352.921722 254.023193,352.878998 248.996155,352.836273 
	C248.996155,347.710663 248.996155,342.585052 248.996155,338.680542 
	C238.173996,335.432831 228.044205,332.392914 217.648285,329.114380 
	C203.401917,321.540802 190.596085,312.652740 181.214310,299.720581 
	C176.937851,293.825775 173.500320,287.322296 169.381836,280.895630 
	C160.644226,263.165680 159.563110,244.720413 161.904816,225.740189 
	C163.420410,213.455750 167.901993,202.324570 174.325867,191.228333 
	C182.205307,180.100723 190.550781,170.298141 201.334839,162.783066 
	C203.326828,161.394928 205.113907,159.712769 206.995560,158.166306 
	C226.175110,146.349319 247.343964,143.104111 269.219208,145.280670 
	C278.340546,146.188232 287.162323,150.106277 296.410156,152.869385 
	C301.254120,155.777374 305.944977,158.266953 310.337646,161.202652 
	C325.365082,171.245667 336.567139,184.621033 344.594849,201.142242 
	C349.842957,211.851974 352.728882,222.835602 353.030182,234.498962 
	C353.323486,245.854126 352.942078,257.123444 349.908936,268.587708 
	C348.150299,272.688110 346.464874,276.373322 344.461792,280.674286 
	C340.411255,287.558716 336.678406,293.827423 332.945557,300.096130 
	C327.439636,305.518341 321.933716,310.940582 315.934479,316.757843 
	C309.154724,321.032898 302.868286,324.912903 296.581848,328.792908 
M178.380142,255.859390 
	C178.499939,256.343781 178.637650,256.824554 178.737015,257.313080 
	C186.390091,294.941620 219.870087,321.524750 258.911041,320.968140 
	C296.529663,320.431824 329.164276,292.379822 335.904480,254.352631 
	C336.219604,250.840286 336.534760,247.327927 336.939362,243.027451 
	C336.896057,241.445358 336.852753,239.863266 336.892578,237.376801 
	C334.764984,187.057968 286.351685,150.999985 237.520630,163.365097 
	C202.881668,172.136429 176.823242,204.487305 177.063324,239.054550 
	C177.091614,240.649857 177.119904,242.245163 177.076538,244.731873 
	C177.502716,248.156265 177.928894,251.580643 178.380142,255.859390 
z"/>
<path fill="#0A5078" opacity="1.000000" stroke="none" 
	d="
M206.702362,157.995117 
	C205.113907,159.712769 203.326828,161.394928 201.334839,162.783066 
	C190.550781,170.298141 182.205307,180.100723 174.484222,190.900757 
	C163.859528,180.579712 153.580154,170.136200 143.240265,159.752960 
	C125.253883,141.691147 107.230148,123.666527 89.361664,105.157883 
	C100.010399,94.096596 110.519554,83.503716 121.028709,72.910843 
	C125.560982,77.315559 130.142761,81.670631 134.617249,86.133286 
	C158.562653,110.015358 182.481277,133.924271 206.702362,157.995117 
z"/>
<path fill="#C80A50" opacity="1.000000" stroke="none" 
	d="
M248.601044,352.901123 
	C254.023193,352.878998 259.050232,352.921722 264.540558,352.900360 
	C271.634033,353.545593 272.992401,354.990936 272.994385,361.551880 
	C273.005524,398.544861 273.006622,435.537842 272.993408,472.530823 
	C272.991028,479.162872 271.125519,480.972839 264.397125,480.996216 
	C259.231506,481.014160 254.065414,481.036224 248.900146,480.989685 
	C243.098938,480.937408 241.021851,478.986267 241.017075,473.331329 
	C240.985397,435.838440 240.988510,398.345551 241.013214,360.852661 
	C241.016953,355.169312 242.329254,353.819641 248.601044,352.901123 
z"/>
<path fill="#00325A" opacity="1.000000" stroke="none" 
	d="
M121.019447,72.449844 
	C110.519554,83.503716 100.010399,94.096596 89.208427,104.859314 
	C76.942650,107.122169 67.646713,102.998810 60.576828,93.181664 
	C58.750225,90.645271 56.106384,88.710167 53.943558,86.399986 
	C51.176651,83.444557 51.065105,78.521912 53.894554,75.668869 
	C66.450539,63.008186 79.057281,50.397293 91.722038,37.845451 
	C94.573845,35.019070 99.518044,35.141785 102.447159,37.998302 
	C107.934784,43.349930 113.428864,48.705975 118.651001,54.311047 
	C119.958580,55.714508 120.724823,58.029572 120.895889,59.998974 
	C121.240723,63.968956 121.005890,67.989288 121.019447,72.449844 
z"/>
<path fill="#00325A" opacity="1.000000" stroke="none" 
	d="
M333.128174,300.369537 
	C336.678406,293.827423 340.411255,287.558716 344.372864,281.034424 
	C346.226685,282.196167 347.941101,283.523987 349.463409,285.044189 
	C375.971802,311.515656 402.462921,338.004425 428.931274,364.515930 
	C430.568604,366.155853 432.148315,367.901245 433.476593,369.792938 
	C437.606171,375.674194 436.915924,381.464813 431.735535,385.738831 
	C427.218048,389.466003 421.371490,388.896759 416.559509,384.093079 
	C392.403473,359.978577 368.273865,335.837585 344.147675,311.693207 
	C340.501160,308.043976 336.921448,304.328033 333.128174,300.369537 
z"/>
<path fill="#00325A" opacity="1.000000" stroke="none" 
	d="
M296.896301,328.971069 
	C302.868286,324.912903 309.154724,321.032898 315.777588,317.043762 
	C317.580780,317.979309 319.229797,318.841309 320.487549,320.095612 
	C346.432434,345.969421 372.380554,371.840576 398.165131,397.873596 
	C400.636780,400.369080 402.784271,403.710022 403.754456,407.044769 
	C405.189850,411.978455 402.323730,416.775299 397.810394,419.054382 
	C393.587708,421.186676 388.658234,420.186951 384.667206,416.200989 
	C357.091644,388.660217 329.543701,361.091797 301.973633,333.545532 
	C300.446442,332.019623 298.801117,330.611938 296.896301,328.971069 
z"/>
<path fill="#EDEFEF" opacity="1.000000" stroke="none" 
	d="
M177.148193,243.840469 
	C177.119904,242.245163 177.091614,240.649857 177.369400,238.417725 
	C179.043228,236.368164 180.214264,234.663879 181.809143,233.587814 
	C197.934860,222.707809 213.964340,211.671646 230.350052,201.194122 
	C248.225449,189.764023 266.476105,190.031479 284.260895,201.538345 
	C300.032562,211.742722 315.569458,222.311996 331.126709,232.843246 
	C333.267120,234.292191 334.927032,236.451019 336.809418,238.281174 
	C336.852753,239.863266 336.896057,241.445358 336.638733,243.645050 
	C334.685577,245.858612 333.225372,247.739334 331.350250,249.005524 
	C315.927979,259.419281 300.494598,269.819489 284.935669,280.027222 
	C266.308319,292.247986 247.521942,292.173157 228.927017,279.941437 
	C213.518158,269.805511 198.220367,259.499512 182.947296,249.159683 
	C180.798676,247.705063 179.070816,245.628922 177.148193,243.840469 
M288.787231,244.995285 
	C288.853119,243.665726 288.976288,242.336151 288.975952,241.006607 
	C288.972534,228.139725 281.322144,216.605423 269.471924,211.564636 
	C257.637268,206.530472 244.016037,209.061432 234.759094,218.014648 
	C225.530792,226.940216 222.532410,240.522415 227.143692,252.511230 
	C232.167419,265.572357 245.420776,273.944397 259.452423,272.920349 
	C274.084595,271.852478 285.176300,261.563293 288.787231,244.995285 
z"/>
<path fill="#02A0C7" opacity="1.000000" stroke="none" 
	d="
M336.851013,237.828979 
	C334.927032,236.451019 333.267120,234.292191 331.126709,232.843246 
	C315.569458,222.311996 300.032562,211.742722 284.260895,201.538345 
	C266.476105,190.031479 248.225449,189.764023 230.350052,201.194122 
	C213.964340,211.671646 197.934860,222.707809 181.809143,233.587814 
	C180.214264,234.663879 179.043228,236.368164 177.431747,238.023666 
	C176.823242,204.487305 202.881668,172.136429 237.520630,163.365097 
	C286.351685,150.999985 334.764984,187.057968 336.851013,237.828979 
z"/>
<path fill="#02A0C7" opacity="1.000000" stroke="none" 
	d="
M335.625427,255.026154 
	C329.164276,292.379822 296.529663,320.431824 258.911041,320.968140 
	C219.870087,321.524750 186.390091,294.941620 178.737015,257.313080 
	C178.637650,256.824554 178.499939,256.343781 178.733337,255.544312 
	C180.955109,256.298615 182.892441,257.264648 184.681458,258.453766 
	C199.078751,268.023438 213.448807,277.634064 227.825821,287.234192 
	C247.553879,300.407410 266.348206,300.464325 285.965271,287.384125 
	C300.348511,277.793671 314.702942,268.159882 329.109619,258.604828 
	C331.167511,257.239960 333.447998,256.210724 335.625427,255.026154 
z"/>
<path fill="#0484AB" opacity="1.000000" stroke="none" 
	d="
M335.764954,254.689392 
	C333.447998,256.210724 331.167511,257.239960 329.109619,258.604828 
	C314.702942,268.159882 300.348511,277.793671 285.965271,287.384125 
	C266.348206,300.464325 247.553879,300.407410 227.825821,287.234192 
	C213.448807,277.634064 199.078751,268.023438 184.681458,258.453766 
	C182.892441,257.264648 180.955109,256.298615 178.720795,255.117126 
	C177.928894,251.580643 177.502716,248.156265 177.112366,244.286163 
	C179.070816,245.628922 180.798676,247.705063 182.947296,249.159683 
	C198.220367,259.499512 213.518158,269.805511 228.927017,279.941437 
	C247.521942,292.173157 266.308319,292.247986 284.935669,280.027222 
	C300.494598,269.819489 315.927979,259.419281 331.350250,249.005524 
	C333.225372,247.739334 334.685577,245.858612 336.593994,244.039124 
	C336.534760,247.327927 336.219604,250.840286 335.764954,254.689392 
z"/>
<path fill="#0D5279" opacity="1.000000" stroke="none" 
	d="
M288.709106,245.424118 
	C285.176300,261.563293 274.084595,271.852478 259.452423,272.920349 
	C245.420776,273.944397 232.167419,265.572357 227.143692,252.511230 
	C222.532410,240.522415 225.530792,226.940216 234.759094,218.014648 
	C244.016037,209.061432 257.637268,206.530472 269.471924,211.564636 
	C281.322144,216.605423 288.972534,228.139725 288.975952,241.006607 
	C288.976288,242.336151 288.853119,243.665726 288.709106,245.424118 
M251.348236,225.279297 
	C243.621796,224.692047 240.410828,228.173111 241.261581,237.066574 
	C241.177902,238.226379 241.025406,239.385956 241.021622,240.546021 
	C240.996414,248.279938 245.541473,254.330048 252.937241,256.458221 
	C259.504059,258.347870 266.952423,255.396576 270.688263,249.424652 
	C274.352295,243.567551 273.633698,236.045700 268.877777,230.431366 
	C264.368774,225.108505 258.481628,224.383270 251.348236,225.279297 
z"/>
<path fill="#00335B" opacity="1.000000" stroke="none" 
	d="
M252.074509,225.386398 
	C258.481628,224.383270 264.368774,225.108505 268.877777,230.431366 
	C273.633698,236.045700 274.352295,243.567551 270.688263,249.424652 
	C266.952423,255.396576 259.504059,258.347870 252.937241,256.458221 
	C245.541473,254.330048 240.996414,248.279938 241.021622,240.546021 
	C241.025406,239.385956 241.177902,238.226379 241.558746,236.859100 
	C244.749359,242.344391 252.299255,242.207474 255.512207,237.587708 
	C258.374573,233.472076 257.219238,229.305008 252.074509,225.386398 
z"/>
<path fill="#E5E8EA" opacity="1.000000" stroke="none" 
	d="
M251.711365,225.332855 
	C257.219238,229.305008 258.374573,233.472076 255.512207,237.587708 
	C252.299255,242.207474 244.749359,242.344391 241.622345,236.364044 
	C240.410828,228.173111 243.621796,224.692047 251.711365,225.332855 
z"/>
</svg>